# xmcd CD database file generated by LOLA_Freedb v0.9beta0
# 
# Track frame offsets:
#      150
#      17754
#      31411
#      47734
#      63157
#      79161
#      91682
#      111060
#      127763
#      138435
#      153530
#      164993
#      171932
#      184988
#      208468
# 
# Disc length: 3119 seconds
# 
# Revision: 0 
# Processed by: cddbd v1.5.1PL0 Copyright (c) Steve Scherf et al.
# Submitted via: LOLA_Freedb v0.9beta0
# 
DISCID=cf0c2d0f
DTITLE=Daniel T.Coates - Hey Daddy
DYEAR=1997
DGENRE=
TTITLE0=Daniel T.Coates - Hey Daddy
TTITLE1=Daniel T.Coates - Cake And Eat It Too
TTITLE2=Daniel T.Coates - Rebuilt Carburators
TTITLE3=Daniel T.Coates - I Never Knew Fishin´
TTITLE4=Daniel T.Coates - Baby Can I Hold You Tonight
TTITLE5=Daniel T.Coates - That´s What Summer Meant
TTITLE6=Daniel T.Coates - Brown Eyed Girl
TTITLE7=Daniel T.Coates - Down In The Valley
TTITLE8=Daniel T.Coates - Chain Gang
TTITLE9=Daniel T.Coates - My Girl´s Got The Blues
TTITLE10=Daniel T.Coates - Your Greatest Mistake
TTITLE11=Daniel T.Coates - Baby Can I Hold You Tonight
TTITLE12=Daniel T.Coates - Stuck In The City
TTITLE13=Daniel T.Coates - Chester County
TTITLE14=Daniel T.Coates - Cajun Jam
EXTD=
EXTT0=
EXTT1=
EXTT2=
EXTT3=
EXTT4=
EXTT5=
EXTT6=
EXTT7=
EXTT8=
EXTT9=
EXTT10=
EXTT11=
EXTT12=
EXTT13=
EXTT14=
PLAYORDER=
